<svg xmlns="http://www.w3.org/2000/svg" width="800" height="500" viewBox="0 0 800 500">
<style>text{font-family:Arial,sans-serif;fill:#111}.g{stroke:#ddd}.a{stroke:#111}.l{fill:none;stroke:#333;stroke-width:3}.p{fill:#fff;stroke:#333;stroke-width:3}.r{stroke:#777;stroke-width:2;stroke-dasharray:8 6}</style>
<text x="400.0" y="32" text-anchor="middle" font-size="24" font-weight="bold">P11.4 three-level grid trend</text>
<line x1="90" y1="430.0" x2="770" y2="430.0" class="g"/><text x="78" y="435.0" text-anchor="end" font-size="15">1.252</text>
<line x1="90" y1="338.8" x2="770" y2="338.8" class="g"/><text x="78" y="343.8" text-anchor="end" font-size="15">1.258</text>
<line x1="90" y1="247.5" x2="770" y2="247.5" class="g"/><text x="78" y="252.5" text-anchor="end" font-size="15">1.264</text>
<line x1="90" y1="156.2" x2="770" y2="156.2" class="g"/><text x="78" y="161.2" text-anchor="end" font-size="15">1.270</text>
<line x1="90" y1="65.0" x2="770" y2="65.0" class="g"/><text x="78" y="70.0" text-anchor="end" font-size="15">1.276</text>
<line x1="90.0" y1="65" x2="90.0" y2="430" class="g"/><text x="90.0" y="457" text-anchor="middle" font-size="15">20</text>
<line x1="316.7" y1="65" x2="316.7" y2="430" class="g"/><text x="316.7" y="457" text-anchor="middle" font-size="15">40</text>
<line x1="770.0" y1="65" x2="770.0" y2="430" class="g"/><text x="770.0" y="457" text-anchor="middle" font-size="15">80</text>
<line x1="90" y1="65" x2="90" y2="430" class="a"/><line x1="90" y1="430" x2="770" y2="430" class="a"/>
<polyline points="90.0,134.8 316.7,256.0 770.0,356.3" class="l"/>
<circle cx="90.0" cy="134.8" r="6" class="p"/><circle cx="316.7" cy="256.0" r="6" class="p"/><circle cx="770.0" cy="356.3" r="6" class="p"/>
<text x="430.0" y="482" text-anchor="middle" font-size="18">Number of cells</text><text x="22" y="247.5" text-anchor="middle" font-size="18" transform="rotate(-90 22 247.5)">Minimum Mach number</text>
</svg>